<svg width="3556" height="800" viewBox="0 0 3556 800" fill="none" xmlns="http://www.w3.org/2000/svg">
<path d="M972 627V254.636H1133.45C1161.82 254.636 1185.64 258.455 1204.91 266.091C1224.3 273.727 1238.91 284.515 1248.73 298.455C1258.67 312.394 1263.64 328.818 1263.64 347.727C1263.64 361.424 1260.61 373.909 1254.55 385.182C1248.61 396.455 1240.24 405.909 1229.45 413.545C1218.67 421.061 1206.06 426.273 1191.64 429.182V432.818C1207.64 433.424 1222.18 437.485 1235.27 445C1248.36 452.394 1258.79 462.636 1266.55 475.727C1274.3 488.697 1278.18 503.97 1278.18 521.545C1278.18 541.909 1272.85 560.03 1262.18 575.909C1251.64 591.788 1236.61 604.273 1217.09 613.364C1197.58 622.455 1174.3 627 1147.27 627H972ZM1073.09 546.273H1120.36C1137.33 546.273 1150.06 543.121 1158.55 536.818C1167.03 530.394 1171.27 520.939 1171.27 508.455C1171.27 499.727 1169.27 492.333 1165.27 486.273C1161.27 480.212 1155.58 475.606 1148.18 472.455C1140.91 469.303 1132.12 467.727 1121.82 467.727H1073.09V546.273ZM1073.09 405.182H1114.55C1123.39 405.182 1131.21 403.788 1138 401C1144.79 398.212 1150.06 394.212 1153.82 389C1157.7 383.667 1159.64 377.182 1159.64 369.545C1159.64 358.03 1155.52 349.242 1147.27 343.182C1139.03 337 1128.61 333.909 1116 333.909H1073.09V405.182ZM1450 632.091C1419.7 632.091 1393.76 626.091 1372.18 614.091C1350.61 601.97 1334.06 585.121 1322.55 563.545C1311.03 541.848 1305.27 516.697 1305.27 488.091C1305.27 459.485 1311.03 434.394 1322.55 412.818C1334.06 391.121 1350.61 374.273 1372.18 362.273C1393.76 350.152 1419.7 344.091 1450 344.091C1480.3 344.091 1506.24 350.152 1527.82 362.273C1549.39 374.273 1565.94 391.121 1577.45 412.818C1588.97 434.394 1594.73 459.485 1594.73 488.091C1594.73 516.697 1588.97 541.848 1577.45 563.545C1565.94 585.121 1549.39 601.97 1527.82 614.091C1506.24 626.091 1480.3 632.091 1450 632.091ZM1450.73 557.909C1459.21 557.909 1466.55 555.061 1472.73 549.364C1478.91 543.667 1483.7 535.545 1487.09 525C1490.48 514.455 1492.18 501.909 1492.18 487.364C1492.18 472.697 1490.48 460.152 1487.09 449.727C1483.7 439.182 1478.91 431.061 1472.73 425.364C1466.55 419.667 1459.21 416.818 1450.73 416.818C1441.76 416.818 1434.06 419.667 1427.64 425.364C1421.21 431.061 1416.3 439.182 1412.91 449.727C1409.52 460.152 1407.82 472.697 1407.82 487.364C1407.82 501.909 1409.52 514.455 1412.91 525C1416.3 535.545 1421.21 543.667 1427.64 549.364C1434.06 555.061 1441.76 557.909 1450.73 557.909ZM1735.82 254.636V627H1635.45V254.636H1735.82ZM1785.5 627V254.636H1886.59V405.182H1891.68L2003.68 254.636H2121.5L1995.68 420.455L2124.41 627H2003.68L1920.05 487.364L1886.59 531V627H1785.5ZM2266.27 632.091C2236.45 632.091 2210.76 626.394 2189.18 615C2167.73 603.485 2151.18 587 2139.55 565.545C2128.03 543.97 2122.27 518.152 2122.27 488.091C2122.27 459.242 2128.09 434.03 2139.73 412.455C2151.36 390.879 2167.79 374.091 2189 362.091C2210.21 350.091 2235.24 344.091 2264.09 344.091C2285.18 344.091 2304.27 347.364 2321.36 353.909C2338.45 360.455 2353.06 369.97 2365.18 382.455C2377.3 394.818 2386.64 409.848 2393.18 427.545C2399.73 445.242 2403 465.182 2403 487.364V510.636H2153.55V455.364H2310.64C2310.52 447.364 2308.45 440.333 2304.45 434.273C2300.58 428.091 2295.3 423.303 2288.64 419.909C2282.09 416.394 2274.64 414.636 2266.27 414.636C2258.15 414.636 2250.7 416.394 2243.91 419.909C2237.12 423.303 2231.67 428.03 2227.55 434.091C2223.55 440.152 2221.42 447.242 2221.18 455.364V515C2221.18 523.97 2223.06 531.97 2226.82 539C2230.58 546.03 2235.97 551.545 2243 555.545C2250.03 559.545 2258.52 561.545 2268.45 561.545C2275.36 561.545 2281.67 560.576 2287.36 558.636C2293.18 556.697 2298.15 553.909 2302.27 550.273C2306.39 546.515 2309.42 542.03 2311.36 536.818H2403C2399.85 556.212 2392.39 573.061 2380.64 587.364C2368.88 601.545 2353.3 612.576 2333.91 620.455C2314.64 628.212 2292.09 632.091 2266.27 632.091ZM2442.5 627V254.636H2603.95C2632.32 254.636 2656.14 258.455 2675.41 266.091C2694.8 273.727 2709.41 284.515 2719.23 298.455C2729.17 312.394 2734.14 328.818 2734.14 347.727C2734.14 361.424 2731.11 373.909 2725.05 385.182C2719.11 396.455 2710.74 405.909 2699.95 413.545C2689.17 421.061 2676.56 426.273 2662.14 429.182V432.818C2678.14 433.424 2692.68 437.485 2705.77 445C2718.86 452.394 2729.29 462.636 2737.05 475.727C2744.8 488.697 2748.68 503.97 2748.68 521.545C2748.68 541.909 2743.35 560.03 2732.68 575.909C2722.14 591.788 2707.11 604.273 2687.59 613.364C2668.08 622.455 2644.8 627 2617.77 627H2442.5ZM2543.59 546.273H2590.86C2607.83 546.273 2620.56 543.121 2629.05 536.818C2637.53 530.394 2641.77 520.939 2641.77 508.455C2641.77 499.727 2639.77 492.333 2635.77 486.273C2631.77 480.212 2626.08 475.606 2618.68 472.455C2611.41 469.303 2602.62 467.727 2592.32 467.727H2543.59V546.273ZM2543.59 405.182H2585.05C2593.89 405.182 2601.71 403.788 2608.5 401C2615.29 398.212 2620.56 394.212 2624.32 389C2628.2 383.667 2630.14 377.182 2630.14 369.545C2630.14 358.03 2626.02 349.242 2617.77 343.182C2609.53 337 2599.11 333.909 2586.5 333.909H2543.59V405.182ZM2785.95 627V347.727H2886.32V627H2785.95ZM2836.14 318.636C2822.56 318.636 2810.92 314.152 2801.23 305.182C2791.53 296.212 2786.68 285.424 2786.68 272.818C2786.68 260.212 2791.53 249.424 2801.23 240.455C2810.92 231.485 2822.56 227 2836.14 227C2849.83 227 2861.47 231.485 2871.05 240.455C2880.74 249.424 2885.59 260.212 2885.59 272.818C2885.59 285.424 2880.74 296.212 2871.05 305.182C2861.47 314.152 2849.83 318.636 2836.14 318.636ZM3037.82 254.636V627H2937.45V254.636H3037.82ZM3189.32 254.636V627H3088.95V254.636H3189.32ZM3444.82 388.455L3395.36 254.636H3428.82L3456.45 336.455L3484.09 254.636H3517.55L3468.09 388.455H3444.82ZM3380.82 388.455V254.636H3421.55V388.455H3380.82ZM3491.36 388.455V254.636H3532.09V388.455H3491.36ZM3276.09 388.455V266.273H3316.82V388.455H3276.09ZM3235.36 287.364V254.636H3357.55V287.364H3235.36Z" fill="white"/>
<g clip-path="url(#clip0_54_20)">
<path d="M399.996 662.482C544.963 662.482 662.483 544.963 662.483 399.996C662.483 255.029 544.963 137.51 399.996 137.51C255.029 137.51 137.51 255.029 137.51 399.996C137.51 544.963 255.029 662.482 399.996 662.482Z" fill="#FAF9F5"/>
<path d="M399.999 0C388.026 0 378.316 9.70783 378.316 21.6829C378.316 33.6579 388.026 43.3657 399.999 43.3657C490.538 43.3657 573.289 77.297 636.248 133.088L585.026 184.308C533.542 140.002 468.635 115.833 400.001 115.833C329.443 115.833 264.818 141.689 215.079 184.414L148.507 117.844C148.391 117.728 148.264 117.631 148.147 117.519C148.035 117.402 147.936 117.274 147.822 117.16C139.353 108.692 125.628 108.692 117.156 117.16C41.6063 192.71 0 293.16 0 399.999C0 620.561 179.441 799.998 399.999 799.998C506.843 799.998 607.293 758.392 682.844 682.84C758.394 607.289 800 506.84 800 399.999C800.002 179.441 620.561 0 399.999 0ZM570.381 229.833C578.842 238.305 592.568 238.316 601.043 229.85C601.671 229.222 602.24 228.557 602.776 227.875C602.822 227.83 602.872 227.793 602.917 227.747L666.914 163.752C718.217 221.647 751.012 296.283 755.956 378.318H731.833C719.859 378.318 710.15 388.026 710.15 400.001C710.15 411.976 719.859 421.684 731.833 421.684H755.966C751.205 501.596 720.176 576.498 667.037 636.373L615.586 584.921C658.311 535.182 684.167 470.559 684.167 399.999C684.167 388.024 674.458 378.316 662.484 378.316C650.511 378.316 640.801 388.024 640.801 399.999C640.801 532.778 532.778 640.803 399.998 640.803C267.218 640.803 159.194 532.779 159.194 399.999C159.194 267.219 267.218 159.196 399.998 159.196C464.377 159.199 524.885 184.285 570.381 229.833ZM399.999 708.059C388.026 708.059 378.316 717.767 378.316 729.742V755.956C296.282 751.011 221.644 718.215 163.75 666.914L215.079 615.587C264.818 658.312 329.441 684.169 400.001 684.169C470.56 684.169 535.184 658.312 584.923 615.587L636.375 667.039C576.501 720.178 501.598 751.205 421.684 755.967V729.745C421.682 717.767 411.974 708.059 399.999 708.059ZM44.0438 421.682H116.653C121.358 483.76 146.107 540.326 184.414 584.921L133.086 636.25C81.783 578.354 48.9892 503.72 44.0438 421.682ZM132.963 163.628L184.414 215.08C146.108 259.677 121.36 316.241 116.653 378.319H44.0345C48.7954 298.407 79.8236 223.504 132.963 163.628Z" fill="#B8E6FE"/>
<path d="M495.763 320.8C494.402 319.439 492.656 318.755 490.528 318.755H455.97C453.39 306.172 448.538 295.236 441.407 285.996H490.062C492.192 285.996 493.937 285.311 495.298 283.95C496.662 282.586 497.343 280.841 497.343 278.714V255.503C497.343 253.378 496.662 251.633 495.298 250.267C493.937 248.907 492.19 248.222 490.062 248.222H309.474C307.349 248.222 305.604 248.908 304.238 250.267C302.874 251.632 302.193 253.377 302.193 255.503V285.758C302.193 287.738 302.915 289.439 304.361 290.886C305.793 292.318 307.499 293.039 309.474 293.039H338.116C370.115 293.039 390.444 301.602 399.09 318.739H309.474C307.349 318.739 305.604 319.424 304.238 320.799C302.874 322.163 302.193 323.896 302.193 326.021V349.227C302.193 351.352 302.874 353.097 304.238 354.463C305.602 355.824 307.347 356.508 309.474 356.508H402.279C398.938 368.954 391.165 378.432 378.949 384.947C366.746 391.465 350.632 394.737 330.618 394.737H309.472C307.497 394.737 305.791 395.446 304.36 396.89C302.916 398.333 302.191 400.038 302.191 402.018V425.896C302.191 429.13 303.347 432.26 305.447 434.718L399.999 549.045C401.363 550.859 403.255 551.774 405.684 551.774H450.049C453.226 551.774 455.435 550.41 456.632 547.67C458.16 544.945 457.862 542.363 455.735 539.938C411.449 485.646 389.838 461.763 364.508 434.768C390.288 431.738 411.216 423.396 427.295 409.749C443.368 396.097 453.157 378.346 456.648 356.521H490.524C492.654 356.521 494.399 355.836 495.76 354.461C497.124 353.097 497.806 351.352 497.806 349.24V326.033C497.809 323.91 497.127 322.164 495.763 320.8Z" fill="#B8E6FE"/>
</g>
<defs>
<clipPath id="clip0_54_20">
<rect width="800" height="800" fill="white"/>
</clipPath>
</defs>
</svg>
