<svg width="800" height="800" viewBox="0 0 800 800" fill="none" xmlns="http://www.w3.org/2000/svg">
<g clip-path="url(#clip0_53_5)">
<path d="M399.996 662.482C544.963 662.482 662.483 544.963 662.483 399.996C662.483 255.029 544.963 137.51 399.996 137.51C255.029 137.51 137.51 255.029 137.51 399.996C137.51 544.963 255.029 662.482 399.996 662.482Z" fill="#0A0A0A"/>
<path d="M399.999 0C388.026 0 378.316 9.70783 378.316 21.6829C378.316 33.6579 388.026 43.3657 399.999 43.3657C490.538 43.3657 573.289 77.297 636.248 133.088L585.026 184.308C533.542 140.002 468.635 115.833 400.001 115.833C329.443 115.833 264.818 141.689 215.079 184.414L148.507 117.844C148.391 117.728 148.264 117.631 148.147 117.519C148.035 117.402 147.936 117.274 147.822 117.16C139.353 108.692 125.628 108.692 117.156 117.16C41.6063 192.71 0 293.16 0 399.999C0 620.561 179.441 799.998 399.999 799.998C506.843 799.998 607.293 758.392 682.844 682.84C758.394 607.289 800 506.84 800 399.999C800.002 179.441 620.561 0 399.999 0ZM570.381 229.833C578.842 238.305 592.568 238.316 601.043 229.85C601.671 229.222 602.24 228.557 602.776 227.875C602.822 227.83 602.872 227.793 602.917 227.747L666.914 163.752C718.217 221.647 751.012 296.283 755.956 378.318H731.833C719.859 378.318 710.15 388.026 710.15 400.001C710.15 411.976 719.859 421.684 731.833 421.684H755.966C751.205 501.596 720.176 576.498 667.037 636.373L615.586 584.921C658.311 535.182 684.167 470.559 684.167 399.999C684.167 388.024 674.458 378.316 662.484 378.316C650.511 378.316 640.801 388.024 640.801 399.999C640.801 532.778 532.778 640.803 399.998 640.803C267.218 640.803 159.194 532.779 159.194 399.999C159.194 267.219 267.218 159.196 399.998 159.196C464.377 159.199 524.885 184.285 570.381 229.833ZM399.999 708.059C388.026 708.059 378.316 717.767 378.316 729.742V755.956C296.282 751.011 221.644 718.215 163.75 666.914L215.079 615.587C264.818 658.312 329.441 684.169 400.001 684.169C470.56 684.169 535.184 658.312 584.923 615.587L636.375 667.039C576.501 720.178 501.598 751.205 421.684 755.967V729.745C421.682 717.767 411.974 708.059 399.999 708.059ZM44.0438 421.682H116.653C121.358 483.76 146.107 540.326 184.414 584.921L133.086 636.25C81.783 578.354 48.9892 503.72 44.0438 421.682ZM132.963 163.628L184.414 215.08C146.108 259.677 121.36 316.241 116.653 378.319H44.0345C48.7954 298.407 79.8236 223.504 132.963 163.628Z" fill="#B8E6FE"/>
<path d="M495.763 320.8C494.402 319.439 492.656 318.755 490.528 318.755H455.97C453.39 306.172 448.538 295.236 441.407 285.996H490.062C492.192 285.996 493.937 285.311 495.298 283.95C496.662 282.586 497.343 280.841 497.343 278.714V255.503C497.343 253.378 496.662 251.633 495.298 250.267C493.937 248.907 492.19 248.222 490.062 248.222H309.474C307.349 248.222 305.604 248.908 304.238 250.267C302.874 251.632 302.193 253.377 302.193 255.503V285.758C302.193 287.738 302.915 289.439 304.361 290.886C305.793 292.318 307.499 293.039 309.474 293.039H338.116C370.115 293.039 390.444 301.602 399.09 318.739H309.474C307.349 318.739 305.604 319.424 304.238 320.799C302.874 322.163 302.193 323.896 302.193 326.021V349.227C302.193 351.352 302.874 353.097 304.238 354.463C305.602 355.824 307.347 356.508 309.474 356.508H402.279C398.938 368.954 391.165 378.432 378.949 384.947C366.746 391.465 350.632 394.737 330.618 394.737H309.472C307.497 394.737 305.791 395.446 304.36 396.89C302.916 398.333 302.191 400.038 302.191 402.018V425.896C302.191 429.13 303.347 432.26 305.447 434.718L399.999 549.045C401.363 550.859 403.255 551.774 405.684 551.774H450.049C453.226 551.774 455.435 550.41 456.632 547.67C458.16 544.945 457.862 542.363 455.735 539.938C411.449 485.646 389.838 461.763 364.508 434.768C390.288 431.738 411.216 423.396 427.295 409.749C443.368 396.097 453.157 378.346 456.648 356.521H490.524C492.654 356.521 494.399 355.836 495.76 354.461C497.124 353.097 497.806 351.352 497.806 349.24V326.033C497.809 323.91 497.127 322.164 495.763 320.8Z" fill="#B8E6FE"/>
</g>
<defs>
<clipPath id="clip0_53_5">
<rect width="800" height="800" fill="white"/>
</clipPath>
</defs>
</svg>
